<svg width="165" height="40" viewBox="0 0 165 40" fill="none" xmlns="http://www.w3.org/2000/svg">
<path fill-rule="evenodd" clip-rule="evenodd" d="M20 40C31.046 40 40 31.046 40 20C40 8.954 31.046 0 20 0C8.954 0 0 8.954 0 20C0 31.046 8.954 40 20 40ZM26.239 9.317C26.543 8.238 25.496 7.600 24.540 8.281L11.193 17.789C10.157 18.528 10.319 20 11.438 20H15.012V19.973H21.802L16.221 21.942L13.762 30.683C13.457 31.762 14.504 32.400 15.461 31.719L28.807 22.210C29.843 21.472 29.681 20 28.562 20H23.232L26.239 9.317Z" fill="#0260FF"/>
<text x="48" y="26" font-family="'Segoe UI', Arial, sans-serif" font-size="19" font-weight="800" fill="white" letter-spacing="0.5">Skill</text>
<text x="90" y="26" font-family="'Segoe UI', Arial, sans-serif" font-size="19" font-weight="400" fill="#0260FF" letter-spacing="0.5">Nest</text>
</svg>
